<?xml version="1.0" encoding="utf-8"?>
<!-- Generator: Adobe Illustrator 16.0.0, SVG Export Plug-In . SVG Version: 6.00 Build 0)  -->
<!DOCTYPE svg PUBLIC "-//W3C//DTD SVG 1.1//EN" "http://www.w3.org/Graphics/SVG/1.1/DTD/svg11.dtd">
<svg version="1.1" id="Layer_1" xmlns="http://www.w3.org/2000/svg" xmlns:xlink="http://www.w3.org/1999/xlink" x="0px" y="0px"
	 width="24px" height="24px" viewBox="0 0 24 24" enable-background="new 0 0 24 24" xml:space="preserve">
<path fill="#FFFFFF" d="M17.734,21.558H6.266c-2.111,0-3.823-1.712-3.823-3.823V6.266c0-2.111,1.712-3.823,3.823-3.823h11.469
	c2.111,0,3.823,1.712,3.823,3.823v11.469C21.558,19.846,19.846,21.558,17.734,21.558z"/>
<path fill="#979798" d="M18,22H6c-2.209,0-4-1.791-4-4V6c0-2.209,1.791-4,4-4h12c2.209,0,4,1.791,4,4v12C22,20.209,20.209,22,18,22z
	 M18,21.001c1.654,0,3.001-1.347,3.001-3.001V6c0-1.654-1.347-3-3.001-3H6C4.346,3,3,4.346,3,6v12c0,1.654,1.346,3.001,3,3.001H18"
	/>
</svg>
