<?xml version="1.0" encoding="utf-8"?>
<!-- Generator: Adobe Illustrator 16.0.0, SVG Export Plug-In . SVG Version: 6.00 Build 0)  -->
<!DOCTYPE svg PUBLIC "-//W3C//DTD SVG 1.1//EN" "http://www.w3.org/Graphics/SVG/1.1/DTD/svg11.dtd">
<svg version="1.1" id="Layer_1" xmlns="http://www.w3.org/2000/svg" xmlns:xlink="http://www.w3.org/1999/xlink" x="0px" y="0px"
	 width="40px" height="40px" viewBox="0 0 40 40" enable-background="new 0 0 40 40" xml:space="preserve">
<g id="Layer_1_1_">
	<path fill="#BEBEBF" d="M20,20c-2.206,0-4-1.794-4-4s1.794-4,4-4c2.206,0,4,1.794,4,4S22.206,20,20,20z M20,14
		c-1.103,0-2,0.897-2,2s0.897,2,2,2c1.103,0,2-0.897,2-2S21.103,14,20,14z"/>
	<path fill="#BEBEBF" d="M20,34c-0.273,0-0.535-0.112-0.724-0.31C18.857,33.251,9,22.853,9,17c0-6.065,4.935-11,11-11
		s11,4.935,11,11c0,5.853-9.856,16.251-10.276,16.69C20.535,33.888,20.273,34,20,34z M20,8c-4.962,0-9,4.038-9,9
		c0,3.861,5.944,11.18,9,14.532C23.056,28.18,29,20.861,29,17C29,12.038,24.963,8,20,8z"/>
</g>
<g id="Layer_2">
</g>
</svg>
