<?xml version="1.0" encoding="utf-8"?>
<!-- Generator: Adobe Illustrator 16.0.0, SVG Export Plug-In . SVG Version: 6.00 Build 0)  -->
<!DOCTYPE svg PUBLIC "-//W3C//DTD SVG 1.1//EN" "http://www.w3.org/Graphics/SVG/1.1/DTD/svg11.dtd">
<svg version="1.1" id="Layer_1" xmlns="http://www.w3.org/2000/svg" xmlns:xlink="http://www.w3.org/1999/xlink" x="0px" y="0px"
	 width="22px" height="22px" viewBox="1 1 22 22" enable-background="new 1 1 22 22" xml:space="preserve">
<path fill="#FFFFFF" d="M17.228,20.714H6.773c-1.925,0-3.485-1.562-3.485-3.486V6.773c0-1.925,1.561-3.485,3.485-3.485h10.455
	c1.925,0,3.486,1.561,3.486,3.485v10.455C20.714,19.152,19.152,20.714,17.228,20.714z"/>
<path fill="#979798" d="M17.4,21H6.6C4.612,21,3,19.389,3,17.4V6.6C3,4.612,4.612,3,6.6,3H17.4C19.389,3,21,4.612,21,6.6V17.4
	C21,19.389,19.389,21,17.4,21z M17.4,20.101c1.488,0,2.7-1.212,2.7-2.7V6.6c0-1.488-1.212-2.699-2.7-2.699H6.6
	C5.112,3.9,3.9,5.112,3.9,6.6V17.4c0,1.488,1.211,2.7,2.699,2.7H17.4"/>
</svg>
