<?xml version="1.0" encoding="utf-8"?>
<!-- Generator: Adobe Illustrator 16.0.0, SVG Export Plug-In . SVG Version: 6.00 Build 0)  -->
<!DOCTYPE svg PUBLIC "-//W3C//DTD SVG 1.1//EN" "http://www.w3.org/Graphics/SVG/1.1/DTD/svg11.dtd">
<svg version="1.1" id="Layer_1" xmlns="http://www.w3.org/2000/svg" xmlns:xlink="http://www.w3.org/1999/xlink" x="0px" y="0px"
	 width="64px" height="16px" viewBox="0 0 64 16" enable-background="new 0 0 64 16" xml:space="preserve">
<path fill="#BEBEBE" d="M7.255,13.25c-0.747,0-1.461-0.115-2.142-0.344c-0.682-0.229-1.218-0.525-1.61-0.889l0.518-1.092
	c0.374,0.326,0.85,0.598,1.428,0.813s1.181,0.32,1.806,0.32c0.569,0,1.031-0.064,1.386-0.195s0.616-0.311,0.784-0.539
	s0.252-0.488,0.252-0.777c0-0.336-0.11-0.605-0.329-0.811C9.128,9.529,8.844,9.365,8.494,9.238C8.144,9.113,7.759,9.002,7.339,8.91
	c-0.42-0.094-0.843-0.203-1.267-0.33C5.647,8.455,5.26,8.293,4.91,8.098S4.277,7.639,4.063,7.307
	C3.848,6.976,3.741,6.549,3.741,6.026c0-0.504,0.133-0.968,0.399-1.393c0.266-0.424,0.677-0.765,1.232-1.022
	c0.555-0.256,1.262-0.385,2.121-0.385c0.569,0,1.134,0.075,1.694,0.224c0.56,0.149,1.045,0.364,1.456,0.644l-0.462,1.12
	c-0.42-0.28-0.863-0.483-1.33-0.609S7.931,4.416,7.493,4.416c-0.551,0-1.003,0.07-1.358,0.21c-0.355,0.14-0.614,0.327-0.777,0.56
	C5.194,5.419,5.113,5.681,5.113,5.97c0,0.346,0.109,0.621,0.329,0.826c0.219,0.206,0.504,0.368,0.854,0.49
	c0.35,0.121,0.735,0.231,1.155,0.329s0.842,0.207,1.267,0.328C9.142,8.064,9.53,8.223,9.88,8.42c0.35,0.195,0.632,0.457,0.847,0.783
	s0.322,0.748,0.322,1.26c0,0.496-0.136,0.955-0.406,1.379c-0.271,0.426-0.688,0.766-1.253,1.023
	C8.825,13.121,8.113,13.25,7.255,13.25z M15.515,13.221c-0.747,0-1.41-0.162-1.988-0.488c-0.579-0.328-1.036-0.777-1.372-1.352
	c-0.336-0.574-0.504-1.225-0.504-1.953c0-0.738,0.168-1.391,0.504-1.96c0.336-0.569,0.793-1.015,1.372-1.337
	c0.579-0.322,1.241-0.483,1.988-0.483c0.737,0,1.397,0.161,1.981,0.483c0.583,0.322,1.041,0.766,1.372,1.33
	c0.331,0.564,0.497,1.221,0.497,1.967c0,0.736-0.166,1.391-0.497,1.959c-0.332,0.57-0.789,1.018-1.372,1.346
	C16.912,13.059,16.251,13.221,15.515,13.221z M15.515,12.045c0.476,0,0.903-0.107,1.281-0.322c0.378-0.213,0.674-0.52,0.889-0.916
	c0.214-0.396,0.322-0.855,0.322-1.379c0-0.533-0.107-0.992-0.322-1.379c-0.215-0.387-0.511-0.688-0.889-0.902
	s-0.805-0.323-1.281-0.323s-0.901,0.108-1.274,0.323c-0.374,0.215-0.672,0.516-0.896,0.902c-0.224,0.387-0.336,0.846-0.336,1.379
	c0,0.523,0.112,0.982,0.336,1.379c0.224,0.396,0.522,0.703,0.896,0.916C14.614,11.938,15.039,12.045,15.515,12.045z M20.667,13.137
	V2.75h1.344v10.387H20.667z M27.078,13.221c-0.719,0-1.36-0.158-1.925-0.475c-0.565-0.318-1.01-0.762-1.337-1.33
	c-0.327-0.57-0.49-1.232-0.49-1.988s0.163-1.416,0.49-1.98c0.327-0.564,0.772-1.006,1.337-1.323
	c0.564-0.317,1.206-0.476,1.925-0.476c0.626,0,1.19,0.14,1.694,0.42c0.504,0.28,0.907,0.7,1.211,1.26
	c0.303,0.559,0.455,1.26,0.455,2.1s-0.146,1.539-0.441,2.1c-0.294,0.561-0.693,0.982-1.197,1.268S27.722,13.221,27.078,13.221z
	 M27.19,12.045c0.467,0,0.889-0.107,1.268-0.322c0.377-0.213,0.676-0.52,0.896-0.916c0.219-0.396,0.329-0.855,0.329-1.379
	c0-0.533-0.11-0.992-0.329-1.379c-0.22-0.387-0.519-0.688-0.896-0.902c-0.379-0.215-0.801-0.323-1.268-0.323
	c-0.476,0-0.901,0.108-1.274,0.323c-0.374,0.215-0.672,0.516-0.896,0.902c-0.224,0.387-0.336,0.846-0.336,1.379
	c0,0.523,0.112,0.982,0.336,1.379c0.224,0.396,0.522,0.703,0.896,0.916C26.29,11.938,26.714,12.045,27.19,12.045z M29.724,13.137
	v-2.002l0.084-1.721l-0.139-1.722V2.75h1.344v10.387H29.724z M40.826,13.25c-0.746,0-1.439-0.127-2.078-0.379
	c-0.64-0.252-1.192-0.604-1.659-1.057s-0.831-0.982-1.092-1.59c-0.262-0.605-0.393-1.268-0.393-1.986s0.131-1.381,0.393-1.988
	c0.261-0.606,0.625-1.136,1.092-1.589s1.017-0.805,1.651-1.057s1.33-0.378,2.086-0.378c0.747,0,1.436,0.124,2.065,0.371
	c0.63,0.247,1.181,0.597,1.652,1.05c0.471,0.453,0.835,0.982,1.092,1.589c0.257,0.607,0.385,1.274,0.385,2.002
	c0,0.727-0.128,1.395-0.385,2.002c-0.257,0.605-0.621,1.135-1.092,1.588c-0.472,0.453-1.022,0.803-1.652,1.051
	C42.262,13.125,41.573,13.25,40.826,13.25z M40.826,12.004c0.542,0,1.043-0.094,1.506-0.281c0.462-0.186,0.862-0.449,1.203-0.791
	c0.341-0.34,0.607-0.738,0.799-1.195c0.19-0.459,0.287-0.957,0.287-1.498c0-0.542-0.097-1.041-0.287-1.499
	c-0.191-0.457-0.458-0.856-0.799-1.197s-0.741-0.604-1.203-0.791c-0.463-0.187-0.964-0.28-1.506-0.28
	c-0.551,0-1.057,0.093-1.519,0.28c-0.462,0.187-0.866,0.45-1.211,0.791c-0.346,0.341-0.614,0.74-0.805,1.197
	c-0.191,0.458-0.287,0.957-0.287,1.499c0,0.541,0.096,1.039,0.287,1.498c0.19,0.457,0.459,0.855,0.805,1.195
	c0.345,0.342,0.749,0.605,1.211,0.791C39.77,11.91,40.275,12.004,40.826,12.004z M50.529,13.221c-0.636,0-1.193-0.115-1.674-0.35
	c-0.48-0.232-0.854-0.59-1.12-1.07c-0.266-0.48-0.398-1.086-0.398-1.813V5.718h1.344v4.116c0,0.727,0.175,1.273,0.525,1.637
	c0.35,0.365,0.842,0.547,1.477,0.547c0.467,0,0.873-0.096,1.218-0.287c0.346-0.191,0.611-0.471,0.799-0.84
	c0.187-0.369,0.279-0.814,0.279-1.338V5.718h1.345v7.419h-1.274v-2.002l0.21,0.533c-0.243,0.494-0.606,0.877-1.092,1.148
	C51.682,13.086,51.136,13.221,50.529,13.221z M55.261,6.824V5.718h4.732v1.106H55.261z M58.873,13.221
	c-0.747,0-1.325-0.199-1.736-0.602c-0.411-0.4-0.616-0.975-0.616-1.723V4.094h1.345v6.748c0,0.4,0.1,0.709,0.301,0.924
	c0.2,0.215,0.487,0.322,0.86,0.322c0.421,0,0.771-0.117,1.051-0.35l0.42,0.965c-0.206,0.178-0.451,0.309-0.735,0.393
	C59.477,13.18,59.181,13.221,58.873,13.221z"/>
</svg>
