<?xml version="1.0" encoding="utf-8"?>
<!-- Generator: Adobe Illustrator 16.0.0, SVG Export Plug-In . SVG Version: 6.00 Build 0)  -->
<!DOCTYPE svg PUBLIC "-//W3C//DTD SVG 1.1//EN" "http://www.w3.org/Graphics/SVG/1.1/DTD/svg11.dtd">
<svg version="1.1" id="Layer_2" xmlns="http://www.w3.org/2000/svg" xmlns:xlink="http://www.w3.org/1999/xlink" x="0px" y="0px"
	 width="16px" height="16px" viewBox="0 0 16 16" enable-background="new 0 0 16 16" xml:space="preserve">
<g>
	<path fill="#1D1D1F" d="M12.923,16H3.076c-1.359,0-2.462-1.102-2.462-2.461V3.693c0-1.362,1.103-2.463,2.462-2.463h9.847
		c1.359,0,2.464,1.101,2.464,2.463v9.846C15.387,14.898,14.282,16,12.923,16z M12.923,14.771c0.679,0,1.23-0.553,1.23-1.232V3.693
		c0-0.679-0.552-1.232-1.23-1.232H3.076c-0.678,0-1.231,0.553-1.231,1.232v9.846c0,0.68,0.553,1.232,1.231,1.232H12.923"/>
	<path fill="#1D1D1F" d="M11.076,3.693c-0.34,0-0.614-0.276-0.614-0.617v-2.46C10.462,0.275,10.736,0,11.076,0
		c0.341,0,0.616,0.276,0.616,0.617v2.46C11.692,3.417,11.417,3.693,11.076,3.693z"/>
	<path fill="#1D1D1D" d="M4.923,3.693c-0.34,0-0.615-0.276-0.615-0.617v-2.46C4.308,0.275,4.583,0,4.923,0
		c0.34,0,0.615,0.276,0.615,0.617v2.46C5.538,3.417,5.263,3.693,4.923,3.693z"/>
	<rect x="0.85" y="4.923" fill="#1D1D1F" width="14.3" height="1.231"/>
	<rect x="6.769" y="8.616" fill="#1D1D1F" width="1.231" height="1.231"/>
	<rect x="4.308" y="8.616" fill="#1D1D1F" width="1.229" height="1.231"/>
	<rect x="4.308" y="11.077" fill="#1D1D1F" width="1.229" height="1.23"/>
</g>
</svg>
