<?xml version="1.0" encoding="utf-8"?>
<!-- Generator: Adobe Illustrator 16.0.0, SVG Export Plug-In . SVG Version: 6.00 Build 0)  -->
<!DOCTYPE svg PUBLIC "-//W3C//DTD SVG 1.1//EN" "http://www.w3.org/Graphics/SVG/1.1/DTD/svg11.dtd">
<svg version="1.1" id="Layer_1" xmlns="http://www.w3.org/2000/svg" xmlns:xlink="http://www.w3.org/1999/xlink" x="0px" y="0px"
	 width="27.762px" height="5.035px" viewBox="0 0 27.762 5.035" enable-background="new 0 0 27.762 5.035" xml:space="preserve">
<path fill="#EDEDED" d="M24.277,2.776l0.746-1.833l0.748,1.833H24.277z M26.691,5.035h1.07L25.646,0l-1.029,0.001
	c0.061,0.174-0.045,0.509-0.16,0.802L22.76,5.035h0.596l0.75-1.838h1.836L26.691,5.035z"/>
<path fill="#EDEDED" d="M9.425,2.661h2.161V2.3H9.425V0.361h2.445V0L8.264,0.001c0,0,0.109,0.19,0.109,0.717v4.319h3.566V4.675
	H9.425V2.661z"/>
<path fill="#EDEDED" d="M3.386,2.3H1.162V0.001H0c0,0,0.109,0.19,0.109,0.717v4.319h1.053V2.704h2.224v2.333h1.053V0.001H3.386V2.3z
	"/>
<path fill="#EDEDED" d="M16.857,2.326h-0.241V0.352h0.228c0.372,0,0.915,0.004,1.194,0.42c0.265,0.396,0.176,0.858-0.019,1.123
	C17.777,2.223,17.505,2.326,16.857,2.326 M18.084,2.551c0.223-0.071,0.453-0.177,0.67-0.339c0.778-0.581,0.584-1.572,0.068-1.9
	C18.491,0.102,18.164,0,17.512,0h-2.061c0,0,0.108,0.19,0.108,0.716v4.319h1.056V2.682h0.278c0.016,0,0.034,0,0.054,0.001
	c0.313,0.021,0.484,0.112,0.751,0.457l1.31,1.896h1.072c0,0-1.399-1.945-1.516-2.097C18.465,2.81,18.307,2.618,18.084,2.551"/>
</svg>
